<?xml version="1.0" encoding="UTF-8" standalone="no"?>
<!-- Created with Inkscape (http://www.inkscape.org/) -->

<svg
   version="1.1"
   id="svg2"
   xml:space="preserve"
   width="75"
   height="75"
   viewBox="0 0 75 75"
   sodipodi:docname="wp-horus-tools-icon.svg"
   inkscape:version="1.1.2 (0a00cf5339, 2022-02-04)"
   inkscape:export-filename="/home/disco/projects/git/public/wp-horus-tools/icon-256x256.png"
   inkscape:export-xdpi="327.67999"
   inkscape:export-ydpi="327.67999"
   xmlns:inkscape="http://www.inkscape.org/namespaces/inkscape"
   xmlns:sodipodi="http://sodipodi.sourceforge.net/DTD/sodipodi-0.dtd"
   xmlns="http://www.w3.org/2000/svg"
   xmlns:svg="http://www.w3.org/2000/svg"><defs
     id="defs6" /><sodipodi:namedview
     id="namedview4"
     pagecolor="#ffffff"
     bordercolor="#666666"
     borderopacity="1.0"
     inkscape:pageshadow="2"
     inkscape:pageopacity="0.0"
     inkscape:pagecheckerboard="0"
     showgrid="false"
     inkscape:snap-bbox="true"
     inkscape:bbox-paths="true"
     inkscape:bbox-nodes="true"
     inkscape:snap-bbox-edge-midpoints="true"
     inkscape:snap-bbox-midpoints="true"
     inkscape:snap-object-midpoints="true"
     inkscape:snap-center="true"
     inkscape:zoom="5.9566479"
     inkscape:cx="117.18"
     inkscape:cy="37.856863"
     inkscape:window-width="1609"
     inkscape:window-height="1082"
     inkscape:window-x="584"
     inkscape:window-y="101"
     inkscape:window-maximized="0"
     inkscape:current-layer="g8" /><g
     id="g8"
     inkscape:groupmode="layer"
     inkscape:label="ink_ext_XXXXXX"
     transform="matrix(1.3333333,0,0,-1.3333333,0,75.586667)"
     style="display:inline"><path
       d="m 28.11168,5.4227991 c -12.641562,0 -22.9247872,10.2780239 -22.9247872,22.9048039 0,12.653343 10.2832252,22.937824 22.9247872,22.937824 12.642006,0 22.918707,-10.284481 22.918707,-22.937824 0,-12.62678 -10.276701,-22.9048039 -22.918707,-22.9048039 m 0,48.1389109 c -13.921968,0 -25.2063325,-11.300359 -25.2063325,-25.234107 0,-13.901072 11.2843645,-25.1906839 25.2063325,-25.1906839 13.918966,0 25.203764,11.2896119 25.203764,25.1906839 0,13.933748 -11.284798,25.234107 -25.203764,25.234107 m 0,-20.374456 c -2.680961,0 -4.84787,-2.15824 -4.84787,-4.859651 0,-2.674848 2.166909,-4.843535 4.84787,-4.843535 2.682294,0 4.844868,2.168687 4.844868,4.843535 0,2.701411 -2.162574,4.859651 -4.844868,4.859651"
       style="fill:#d5831a;fill-opacity:1;fill-rule:nonzero;stroke:none;stroke-width:0.111146"
       id="path66" /><g
       id="g1673"
       transform="matrix(1.2843337,0,0,1.2843337,-66.216027,-6.8561134)"><circle
         style="fill:#ffffff;fill-opacity:1;stroke:none;stroke-width:1.79565;stroke-linejoin:round;stroke-miterlimit:4;stroke-dasharray:none;stroke-opacity:1"
         id="path1411"
         cx="83.871597"
         cy="-16.977976"
         r="7.8880529"
         transform="scale(1,-1)" /><path
         d="m 87.09064,12.471317 1.287617,1.287616 q 0.137959,0.137959 0.137959,0.321905 0,0.183945 -0.137959,0.321904 l -3.127069,3.150063 q 0.09197,0.252924 0.137958,0.505849 0.04599,0.252925 0.04599,0.574829 0,1.31061 -0.931227,2.241833 -0.931216,0.931223 -2.241826,0.931223 -0.390884,0 -0.781768,-0.103464 -0.390883,-0.103475 -0.758774,-0.287414 l 2.161357,-2.161357 -1.287617,-1.287617 -2.161356,2.161357 q -0.183945,-0.36789 -0.28742,-0.758774 -0.1035,-0.390884 -0.1035,-0.781767 0,-1.31061 0.931217,-2.241833 0.931228,-0.931223 2.241837,-0.931223 0.298912,0 0.563327,0.04599 0.264427,0.04599 0.517352,0.137959 l 3.15006,-3.127069 q 0.137959,-0.137959 0.321904,-0.137959 0.183945,0 0.321904,0.137959 z M 83.871601,7.7807137 q -1.908432,0 -3.586932,0.7242844 -1.6785,0.7242845 -2.920131,1.9659149 -1.24163,1.24163 -1.965921,2.92013 -0.724278,1.678501 -0.724278,3.586933 0,1.908432 0.724278,3.586932 0.724291,1.678501 1.965921,2.920131 1.241631,1.24163 2.920131,1.965915 1.6785,0.724284 3.586932,0.724284 1.908429,0 3.58693,-0.724284 1.6785,-0.724285 2.92013,-1.965915 1.241631,-1.24163 1.965909,-2.920131 0.724291,-1.6785 0.724291,-3.586932 0,-1.908432 -0.724291,-3.586933 -0.724278,-1.6785 -1.965909,-2.92013 -1.24163,-1.2416304 -2.92013,-1.9659149 -1.678501,-0.7242844 -3.58693,-0.7242844 z m 0,1.8394525 q 3.08108,0 5.219444,2.1383638 2.138363,2.138362 2.138363,5.219446 0,3.081083 -2.138363,5.219446 -2.138364,2.138364 -5.219444,2.138364 -3.081083,0 -5.219446,-2.138364 -2.138363,-2.138363 -2.138363,-5.219446 0,-3.081084 2.138363,-5.219446 2.138363,-2.1383638 5.219446,-2.1383638 z m 0,7.3578098 z"
         id="path2"
         style="fill:#d5831a;fill-opacity:1;stroke-width:0.0229932" /></g></g></svg>
